<?xml version="1.0" encoding="us-ascii" standalone="no"?><svg xmlns="http://www.w3.org/2000/svg" xmlns:xlink="http://www.w3.org/1999/xlink" contentStyleType="text/css" height="1109px" preserveAspectRatio="none" style="width:936px;height:1109px;background:#1B1B1B;" version="1.1" viewBox="0 0 936 1109" width="936px" zoomAndPan="magnify"><defs/><g><rect fill="#1B1B1B" height="1109" style="stroke:none;stroke-width:1.0;" width="936" x="0" y="0"/><!--class Team--><g id="elem_Team"><rect codeLine="1" fill="#313139" height="113.1875" id="Team" rx="2.5" ry="2.5" style="stroke:#E7E7E7;stroke-width:0.5;" width="154" x="502.5" y="561"/><ellipse cx="555.25" cy="577" fill="#2E5233" rx="11" ry="11" style="stroke:#E7E7E7;stroke-width:1.0;"/><path d="M557.5938,572.6719 C556.6563,572.2344 556.0625,572.0938 555.1875,572.0938 C552.5625,572.0938 550.5625,574.1719 550.5625,576.8906 L550.5625,578.0156 C550.5625,580.5938 552.6719,582.4844 555.5625,582.4844 C556.7813,582.4844 557.9375,582.1875 558.6875,581.6406 C559.2656,581.2344 559.5938,580.7813 559.5938,580.3906 C559.5938,579.9375 559.2031,579.5469 558.7344,579.5469 C558.5156,579.5469 558.3125,579.625 558.125,579.8125 C557.6719,580.2969 557.6719,580.2969 557.4844,580.3906 C557.0625,580.6563 556.375,580.7813 555.6094,580.7813 C553.5625,580.7813 552.2656,579.6875 552.2656,577.9844 L552.2656,576.8906 C552.2656,575.1094 553.5156,573.7969 555.25,573.7969 C555.8281,573.7969 556.4375,573.9531 556.9063,574.2031 C557.3906,574.4844 557.5625,574.7031 557.6563,575.1094 C557.7188,575.5156 557.75,575.6406 557.8906,575.7656 C558.0313,575.9063 558.2656,576.0156 558.4844,576.0156 C558.75,576.0156 559.0156,575.875 559.1875,575.6563 C559.2969,575.5 559.3281,575.3125 559.3281,574.8906 L559.3281,573.4688 C559.3281,573.0313 559.3125,572.9063 559.2188,572.75 C559.0625,572.4844 558.7813,572.3438 558.4844,572.3438 C558.1875,572.3438 557.9844,572.4375 557.7656,572.75 L557.5938,572.6719 Z " fill="#FFFFFF"/><text fill="#FFFFFF" font-family="sans-serif" font-size="14" lengthAdjust="spacing" textLength="40" x="575.75" y="581.8467">Team</text><line style="stroke:#E7E7E7;stroke-width:0.5;" x1="503.5" x2="655.5" y1="593" y2="593"/><text fill="#FFFFFF" font-family="sans-serif" font-size="14" lengthAdjust="spacing" textLength="42" x="508.5" y="609.9951">id: int</text><text fill="#FFFFFF" font-family="sans-serif" font-size="14" lengthAdjust="spacing" textLength="91" x="508.5" y="626.292">name: string</text><text fill="#FFFFFF" font-family="sans-serif" font-size="14" lengthAdjust="spacing" textLength="142" x="508.5" y="642.5889">creation_date: date</text><text fill="#FFFFFF" font-family="sans-serif" font-size="14" lengthAdjust="spacing" textLength="106" x="508.5" y="658.8857">country: string</text><line style="stroke:#E7E7E7;stroke-width:0.5;" x1="503.5" x2="655.5" y1="666.1875" y2="666.1875"/></g><!--class Player--><g id="elem_Player"><rect codeLine="8" fill="#313139" height="113.1875" id="Player" rx="2.5" ry="2.5" style="stroke:#E7E7E7;stroke-width:0.5;" width="140" x="423.5" y="989"/><ellipse cx="467.3" cy="1005" fill="#2E5233" rx="11" ry="11" style="stroke:#E7E7E7;stroke-width:1.0;"/><path d="M469.6438,1000.6719 C468.7063,1000.2344 468.1125,1000.0938 467.2375,1000.0938 C464.6125,1000.0938 462.6125,1002.1719 462.6125,1004.8906 L462.6125,1006.0156 C462.6125,1008.5938 464.7219,1010.4844 467.6125,1010.4844 C468.8313,1010.4844 469.9875,1010.1875 470.7375,1009.6406 C471.3156,1009.2344 471.6438,1008.7813 471.6438,1008.3906 C471.6438,1007.9375 471.2531,1007.5469 470.7844,1007.5469 C470.5656,1007.5469 470.3625,1007.625 470.175,1007.8125 C469.7219,1008.2969 469.7219,1008.2969 469.5344,1008.3906 C469.1125,1008.6563 468.425,1008.7813 467.6594,1008.7813 C465.6125,1008.7813 464.3156,1007.6875 464.3156,1005.9844 L464.3156,1004.8906 C464.3156,1003.1094 465.5656,1001.7969 467.3,1001.7969 C467.8781,1001.7969 468.4875,1001.9531 468.9563,1002.2031 C469.4406,1002.4844 469.6125,1002.7031 469.7063,1003.1094 C469.7688,1003.5156 469.8,1003.6406 469.9406,1003.7656 C470.0813,1003.9063 470.3156,1004.0156 470.5344,1004.0156 C470.8,1004.0156 471.0656,1003.875 471.2375,1003.6563 C471.3469,1003.5 471.3781,1003.3125 471.3781,1002.8906 L471.3781,1001.4688 C471.3781,1001.0313 471.3625,1000.9063 471.2688,1000.75 C471.1125,1000.4844 470.8313,1000.3438 470.5344,1000.3438 C470.2375,1000.3438 470.0344,1000.4375 469.8156,1000.75 L469.6438,1000.6719 Z " fill="#FFFFFF"/><text fill="#FFFFFF" font-family="sans-serif" font-size="14" lengthAdjust="spacing" textLength="44" x="487.7" y="1009.8467">Player</text><line style="stroke:#E7E7E7;stroke-width:0.5;" x1="424.5" x2="562.5" y1="1021" y2="1021"/><text fill="#FFFFFF" font-family="sans-serif" font-size="14" lengthAdjust="spacing" textLength="42" x="429.5" y="1037.9951">id: int</text><text fill="#FFFFFF" font-family="sans-serif" font-size="14" lengthAdjust="spacing" textLength="128" x="429.5" y="1054.292">first_name: string</text><text fill="#FFFFFF" font-family="sans-serif" font-size="14" lengthAdjust="spacing" textLength="124" x="429.5" y="1070.5889">last_name: string</text><text fill="#FFFFFF" font-family="sans-serif" font-size="14" lengthAdjust="spacing" textLength="113" x="429.5" y="1086.8857">birthDate: date</text><line style="stroke:#E7E7E7;stroke-width:0.5;" x1="424.5" x2="562.5" y1="1094.1875" y2="1094.1875"/></g><!--class Tournament--><g id="elem_Tournament"><rect codeLine="15" fill="#313139" height="129.4844" id="Tournament" rx="2.5" ry="2.5" style="stroke:#E7E7E7;stroke-width:0.5;" width="137" x="437" y="165"/><ellipse cx="459.65" cy="181" fill="#2E5233" rx="11" ry="11" style="stroke:#E7E7E7;stroke-width:1.0;"/><path d="M461.9938,176.6719 C461.0563,176.2344 460.4625,176.0938 459.5875,176.0938 C456.9625,176.0938 454.9625,178.1719 454.9625,180.8906 L454.9625,182.0156 C454.9625,184.5938 457.0719,186.4844 459.9625,186.4844 C461.1813,186.4844 462.3375,186.1875 463.0875,185.6406 C463.6656,185.2344 463.9938,184.7813 463.9938,184.3906 C463.9938,183.9375 463.6031,183.5469 463.1344,183.5469 C462.9156,183.5469 462.7125,183.625 462.525,183.8125 C462.0719,184.2969 462.0719,184.2969 461.8844,184.3906 C461.4625,184.6563 460.775,184.7813 460.0094,184.7813 C457.9625,184.7813 456.6656,183.6875 456.6656,181.9844 L456.6656,180.8906 C456.6656,179.1094 457.9156,177.7969 459.65,177.7969 C460.2281,177.7969 460.8375,177.9531 461.3063,178.2031 C461.7906,178.4844 461.9625,178.7031 462.0563,179.1094 C462.1188,179.5156 462.15,179.6406 462.2906,179.7656 C462.4313,179.9063 462.6656,180.0156 462.8844,180.0156 C463.15,180.0156 463.4156,179.875 463.5875,179.6563 C463.6969,179.5 463.7281,179.3125 463.7281,178.8906 L463.7281,177.4688 C463.7281,177.0313 463.7125,176.9063 463.6188,176.75 C463.4625,176.4844 463.1813,176.3438 462.8844,176.3438 C462.5875,176.3438 462.3844,176.4375 462.1656,176.75 L461.9938,176.6719 Z " fill="#FFFFFF"/><text fill="#FFFFFF" font-family="sans-serif" font-size="14" lengthAdjust="spacing" textLength="88" x="475.35" y="185.8467">Tournament</text><line style="stroke:#E7E7E7;stroke-width:0.5;" x1="438" x2="573" y1="197" y2="197"/><text fill="#FFFFFF" font-family="sans-serif" font-size="14" lengthAdjust="spacing" textLength="42" x="443" y="213.9951">id: int</text><text fill="#FFFFFF" font-family="sans-serif" font-size="14" lengthAdjust="spacing" textLength="91" x="443" y="230.292">name: string</text><text fill="#FFFFFF" font-family="sans-serif" font-size="14" lengthAdjust="spacing" textLength="125" x="443" y="246.5889">debut_date: date</text><text fill="#FFFFFF" font-family="sans-serif" font-size="14" lengthAdjust="spacing" textLength="109" x="443" y="262.8857">end_date: date</text><text fill="#FFFFFF" font-family="sans-serif" font-size="14" lengthAdjust="spacing" textLength="109" x="443" y="279.1826">location: string</text><line style="stroke:#E7E7E7;stroke-width:0.5;" x1="438" x2="573" y1="286.4844" y2="286.4844"/></g><!--class TournamenTeam--><g id="elem_TournamenTeam"><rect codeLine="23" fill="#313139" height="48" id="TournamenTeam" rx="2.5" ry="2.5" style="stroke:#E7E7E7;stroke-width:0.5;" width="153" x="619" y="395.5"/><ellipse cx="634" cy="411.5" fill="#2E5233" rx="11" ry="11" style="stroke:#E7E7E7;stroke-width:1.0;"/><path d="M636.3438,407.1719 C635.4063,406.7344 634.8125,406.5938 633.9375,406.5938 C631.3125,406.5938 629.3125,408.6719 629.3125,411.3906 L629.3125,412.5156 C629.3125,415.0938 631.4219,416.9844 634.3125,416.9844 C635.5313,416.9844 636.6875,416.6875 637.4375,416.1406 C638.0156,415.7344 638.3438,415.2813 638.3438,414.8906 C638.3438,414.4375 637.9531,414.0469 637.4844,414.0469 C637.2656,414.0469 637.0625,414.125 636.875,414.3125 C636.4219,414.7969 636.4219,414.7969 636.2344,414.8906 C635.8125,415.1563 635.125,415.2813 634.3594,415.2813 C632.3125,415.2813 631.0156,414.1875 631.0156,412.4844 L631.0156,411.3906 C631.0156,409.6094 632.2656,408.2969 634,408.2969 C634.5781,408.2969 635.1875,408.4531 635.6563,408.7031 C636.1406,408.9844 636.3125,409.2031 636.4063,409.6094 C636.4688,410.0156 636.5,410.1406 636.6406,410.2656 C636.7813,410.4063 637.0156,410.5156 637.2344,410.5156 C637.5,410.5156 637.7656,410.375 637.9375,410.1563 C638.0469,410 638.0781,409.8125 638.0781,409.3906 L638.0781,407.9688 C638.0781,407.5313 638.0625,407.4063 637.9688,407.25 C637.8125,406.9844 637.5313,406.8438 637.2344,406.8438 C636.9375,406.8438 636.7344,406.9375 636.5156,407.25 L636.3438,407.1719 Z " fill="#FFFFFF"/><text fill="#FFFFFF" font-family="sans-serif" font-size="14" lengthAdjust="spacing" textLength="121" x="648" y="416.3467">TournamenTeam</text><line style="stroke:#E7E7E7;stroke-width:0.5;" x1="620" x2="771" y1="427.5" y2="427.5"/><line style="stroke:#E7E7E7;stroke-width:0.5;" x1="620" x2="771" y1="435.5" y2="435.5"/></g><!--class User--><g id="elem_User"><rect codeLine="27" fill="#313139" height="129.4844" id="User" rx="2.5" ry="2.5" style="stroke:#E7E7E7;stroke-width:0.5;" width="133" x="451" y="355"/><ellipse cx="497.75" cy="371" fill="#2E5233" rx="11" ry="11" style="stroke:#E7E7E7;stroke-width:1.0;"/><path d="M500.0938,366.6719 C499.1563,366.2344 498.5625,366.0938 497.6875,366.0938 C495.0625,366.0938 493.0625,368.1719 493.0625,370.8906 L493.0625,372.0156 C493.0625,374.5938 495.1719,376.4844 498.0625,376.4844 C499.2813,376.4844 500.4375,376.1875 501.1875,375.6406 C501.7656,375.2344 502.0938,374.7813 502.0938,374.3906 C502.0938,373.9375 501.7031,373.5469 501.2344,373.5469 C501.0156,373.5469 500.8125,373.625 500.625,373.8125 C500.1719,374.2969 500.1719,374.2969 499.9844,374.3906 C499.5625,374.6563 498.875,374.7813 498.1094,374.7813 C496.0625,374.7813 494.7656,373.6875 494.7656,371.9844 L494.7656,370.8906 C494.7656,369.1094 496.0156,367.7969 497.75,367.7969 C498.3281,367.7969 498.9375,367.9531 499.4063,368.2031 C499.8906,368.4844 500.0625,368.7031 500.1563,369.1094 C500.2188,369.5156 500.25,369.6406 500.3906,369.7656 C500.5313,369.9063 500.7656,370.0156 500.9844,370.0156 C501.25,370.0156 501.5156,369.875 501.6875,369.6563 C501.7969,369.5 501.8281,369.3125 501.8281,368.8906 L501.8281,367.4688 C501.8281,367.0313 501.8125,366.9063 501.7188,366.75 C501.5625,366.4844 501.2813,366.3438 500.9844,366.3438 C500.6875,366.3438 500.4844,366.4375 500.2656,366.75 L500.0938,366.6719 Z " fill="#FFFFFF"/><text fill="#FFFFFF" font-family="sans-serif" font-size="14" lengthAdjust="spacing" textLength="31" x="518.25" y="375.8467">User</text><line style="stroke:#E7E7E7;stroke-width:0.5;" x1="452" x2="583" y1="387" y2="387"/><text fill="#FFFFFF" font-family="sans-serif" font-size="14" lengthAdjust="spacing" textLength="42" x="457" y="403.9951">id: int</text><text fill="#FFFFFF" font-family="sans-serif" font-size="14" lengthAdjust="spacing" textLength="121" x="457" y="420.292">username: string</text><text fill="#FFFFFF" font-family="sans-serif" font-size="14" lengthAdjust="spacing" textLength="90" x="457" y="436.5889">email: string</text><text fill="#FFFFFF" font-family="sans-serif" font-size="14" lengthAdjust="spacing" textLength="118" x="457" y="452.8857">password: string</text><text fill="#FFFFFF" font-family="sans-serif" font-size="14" lengthAdjust="spacing" textLength="97" x="457" y="469.1826">phone: string</text><line style="stroke:#E7E7E7;stroke-width:0.5;" x1="452" x2="583" y1="476.4844" y2="476.4844"/></g><!--class Match--><g id="elem_Match"><rect codeLine="35" fill="#313139" height="96.8906" id="Match" rx="2.5" ry="2.5" style="stroke:#E7E7E7;stroke-width:0.5;" width="155" x="261" y="371"/><ellipse cx="312.25" cy="387" fill="#2E5233" rx="11" ry="11" style="stroke:#E7E7E7;stroke-width:1.0;"/><path d="M314.5938,382.6719 C313.6563,382.2344 313.0625,382.0938 312.1875,382.0938 C309.5625,382.0938 307.5625,384.1719 307.5625,386.8906 L307.5625,388.0156 C307.5625,390.5938 309.6719,392.4844 312.5625,392.4844 C313.7813,392.4844 314.9375,392.1875 315.6875,391.6406 C316.2656,391.2344 316.5938,390.7813 316.5938,390.3906 C316.5938,389.9375 316.2031,389.5469 315.7344,389.5469 C315.5156,389.5469 315.3125,389.625 315.125,389.8125 C314.6719,390.2969 314.6719,390.2969 314.4844,390.3906 C314.0625,390.6563 313.375,390.7813 312.6094,390.7813 C310.5625,390.7813 309.2656,389.6875 309.2656,387.9844 L309.2656,386.8906 C309.2656,385.1094 310.5156,383.7969 312.25,383.7969 C312.8281,383.7969 313.4375,383.9531 313.9063,384.2031 C314.3906,384.4844 314.5625,384.7031 314.6563,385.1094 C314.7188,385.5156 314.75,385.6406 314.8906,385.7656 C315.0313,385.9063 315.2656,386.0156 315.4844,386.0156 C315.75,386.0156 316.0156,385.875 316.1875,385.6563 C316.2969,385.5 316.3281,385.3125 316.3281,384.8906 L316.3281,383.4688 C316.3281,383.0313 316.3125,382.9063 316.2188,382.75 C316.0625,382.4844 315.7813,382.3438 315.4844,382.3438 C315.1875,382.3438 314.9844,382.4375 314.7656,382.75 L314.5938,382.6719 Z " fill="#FFFFFF"/><text fill="#FFFFFF" font-family="sans-serif" font-size="14" lengthAdjust="spacing" textLength="44" x="332.75" y="391.8467">Match</text><line style="stroke:#E7E7E7;stroke-width:0.5;" x1="262" x2="415" y1="403" y2="403"/><text fill="#FFFFFF" font-family="sans-serif" font-size="14" lengthAdjust="spacing" textLength="42" x="267" y="419.9951">id: int</text><text fill="#FFFFFF" font-family="sans-serif" font-size="14" lengthAdjust="spacing" textLength="75" x="267" y="436.292">date: date</text><text fill="#FFFFFF" font-family="sans-serif" font-size="14" lengthAdjust="spacing" textLength="143" x="267" y="452.5889">status: MatchStatus</text><line style="stroke:#E7E7E7;stroke-width:0.5;" x1="262" x2="415" y1="459.8906" y2="459.8906"/></g><!--class MatchStatus--><g id="elem_MatchStatus"><rect codeLine="41" fill="#313139" height="96.8906" id="MatchStatus" rx="2.5" ry="2.5" style="stroke:#E7E7E7;stroke-width:0.5;" width="122" x="473.5" y="7"/><ellipse cx="488.5" cy="23" fill="#852D19" rx="11" ry="11" style="stroke:#E7E7E7;stroke-width:1.0;"/><path d="M487.2969,23.875 L488.75,23.875 L488.75,23.9844 C488.75,24.3906 488.7813,24.5469 488.8594,24.7031 C489.0156,24.9531 489.2969,25.1094 489.5938,25.1094 C489.8438,25.1094 490.1094,24.9688 490.2656,24.75 C490.3906,24.5938 490.4219,24.4375 490.4219,23.9844 L490.4219,22.0625 C490.4219,21.9063 490.4219,21.8594 490.4063,21.7031 C490.3438,21.2344 490.0313,20.9219 489.5781,20.9219 C489.3281,20.9219 489.0625,21.0625 488.8906,21.2813 C488.7813,21.4531 488.75,21.6094 488.75,22.0625 L488.75,22.1875 L487.2969,22.1875 L487.2969,19.7813 L491.2813,19.7813 L491.2813,20.6406 C491.2813,21.0469 491.3125,21.2188 491.3906,21.375 C491.5625,21.625 491.8438,21.7813 492.125,21.7813 C492.3906,21.7813 492.6563,21.6406 492.8281,21.4219 C492.9375,21.25 492.9688,21.1094 492.9688,20.6406 L492.9688,18.0938 L485.3438,18.0938 C484.9063,18.0938 484.7813,18.1094 484.625,18.2031 C484.375,18.3594 484.2188,18.6563 484.2188,18.9375 C484.2188,19.2188 484.3594,19.4688 484.5781,19.6406 C484.7344,19.75 484.9219,19.7813 485.3438,19.7813 L485.5938,19.7813 L485.5938,26.2969 L485.3438,26.2969 C484.9375,26.2969 484.7813,26.3125 484.625,26.4219 C484.375,26.5938 484.2188,26.8594 484.2188,27.1563 C484.2188,27.4219 484.3594,27.6719 484.5781,27.8281 C484.7188,27.9531 484.9531,28 485.3438,28 L493.3438,28 L493.3438,25.4219 C493.3438,24.9844 493.3125,24.8438 493.2344,24.6875 C493.0625,24.4375 492.7813,24.2813 492.5,24.2813 C492.2344,24.2813 491.9688,24.3906 491.7969,24.6406 C491.6875,24.7969 491.6563,24.9375 491.6563,25.4219 L491.6563,26.2969 L487.2969,26.2969 L487.2969,23.875 Z " fill="#FFFFFF"/><text fill="#FFFFFF" font-family="sans-serif" font-size="14" lengthAdjust="spacing" textLength="90" x="502.5" y="27.8467">MatchStatus</text><line style="stroke:#E7E7E7;stroke-width:0.5;" x1="474.5" x2="594.5" y1="39" y2="39"/><text fill="#FFFFFF" font-family="sans-serif" font-size="14" lengthAdjust="spacing" textLength="86" x="479.5" y="55.9951">SCHEDULED</text><text fill="#FFFFFF" font-family="sans-serif" font-size="14" lengthAdjust="spacing" textLength="56" x="479.5" y="72.292">PLAYED</text><text fill="#FFFFFF" font-family="sans-serif" font-size="14" lengthAdjust="spacing" textLength="88" x="479.5" y="88.5889">POSTPONED</text><line style="stroke:#E7E7E7;stroke-width:0.5;" x1="474.5" x2="594.5" y1="95.8906" y2="95.8906"/></g><!--class Referee--><g id="elem_Referee"><rect codeLine="47" fill="#313139" height="96.8906" id="Referee" rx="2.5" ry="2.5" style="stroke:#E7E7E7;stroke-width:0.5;" width="122" x="807.5" y="371"/><ellipse cx="836.9" cy="387" fill="#2E5233" rx="11" ry="11" style="stroke:#E7E7E7;stroke-width:1.0;"/><path d="M839.2438,382.6719 C838.3063,382.2344 837.7125,382.0938 836.8375,382.0938 C834.2125,382.0938 832.2125,384.1719 832.2125,386.8906 L832.2125,388.0156 C832.2125,390.5938 834.3219,392.4844 837.2125,392.4844 C838.4313,392.4844 839.5875,392.1875 840.3375,391.6406 C840.9156,391.2344 841.2438,390.7813 841.2438,390.3906 C841.2438,389.9375 840.8531,389.5469 840.3844,389.5469 C840.1656,389.5469 839.9625,389.625 839.775,389.8125 C839.3219,390.2969 839.3219,390.2969 839.1344,390.3906 C838.7125,390.6563 838.025,390.7813 837.2594,390.7813 C835.2125,390.7813 833.9156,389.6875 833.9156,387.9844 L833.9156,386.8906 C833.9156,385.1094 835.1656,383.7969 836.9,383.7969 C837.4781,383.7969 838.0875,383.9531 838.5563,384.2031 C839.0406,384.4844 839.2125,384.7031 839.3063,385.1094 C839.3688,385.5156 839.4,385.6406 839.5406,385.7656 C839.6813,385.9063 839.9156,386.0156 840.1344,386.0156 C840.4,386.0156 840.6656,385.875 840.8375,385.6563 C840.9469,385.5 840.9781,385.3125 840.9781,384.8906 L840.9781,383.4688 C840.9781,383.0313 840.9625,382.9063 840.8688,382.75 C840.7125,382.4844 840.4313,382.3438 840.1344,382.3438 C839.8375,382.3438 839.6344,382.4375 839.4156,382.75 L839.2438,382.6719 Z " fill="#FFFFFF"/><text fill="#FFFFFF" font-family="sans-serif" font-size="14" lengthAdjust="spacing" textLength="58" x="854.1" y="391.8467">Referee</text><line style="stroke:#E7E7E7;stroke-width:0.5;" x1="808.5" x2="928.5" y1="403" y2="403"/><text fill="#FFFFFF" font-family="sans-serif" font-size="14" lengthAdjust="spacing" textLength="42" x="813.5" y="419.9951">id: int</text><text fill="#FFFFFF" font-family="sans-serif" font-size="14" lengthAdjust="spacing" textLength="91" x="813.5" y="436.292">name: string</text><text fill="#FFFFFF" font-family="sans-serif" font-size="14" lengthAdjust="spacing" textLength="110" x="813.5" y="452.5889">experience: int</text><line style="stroke:#E7E7E7;stroke-width:0.5;" x1="808.5" x2="928.5" y1="459.8906" y2="459.8906"/></g><!--class Cup--><g id="elem_Cup"><rect codeLine="53" fill="#313139" height="48" id="Cup" rx="2.5" ry="2.5" style="stroke:#E7E7E7;stroke-width:0.5;" width="60" x="148.5" y="31.5"/><ellipse cx="163.5" cy="47.5" fill="#2E5233" rx="11" ry="11" style="stroke:#E7E7E7;stroke-width:1.0;"/><path d="M165.8438,43.1719 C164.9063,42.7344 164.3125,42.5938 163.4375,42.5938 C160.8125,42.5938 158.8125,44.6719 158.8125,47.3906 L158.8125,48.5156 C158.8125,51.0938 160.9219,52.9844 163.8125,52.9844 C165.0313,52.9844 166.1875,52.6875 166.9375,52.1406 C167.5156,51.7344 167.8438,51.2813 167.8438,50.8906 C167.8438,50.4375 167.4531,50.0469 166.9844,50.0469 C166.7656,50.0469 166.5625,50.125 166.375,50.3125 C165.9219,50.7969 165.9219,50.7969 165.7344,50.8906 C165.3125,51.1563 164.625,51.2813 163.8594,51.2813 C161.8125,51.2813 160.5156,50.1875 160.5156,48.4844 L160.5156,47.3906 C160.5156,45.6094 161.7656,44.2969 163.5,44.2969 C164.0781,44.2969 164.6875,44.4531 165.1563,44.7031 C165.6406,44.9844 165.8125,45.2031 165.9063,45.6094 C165.9688,46.0156 166,46.1406 166.1406,46.2656 C166.2813,46.4063 166.5156,46.5156 166.7344,46.5156 C167,46.5156 167.2656,46.375 167.4375,46.1563 C167.5469,46 167.5781,45.8125 167.5781,45.3906 L167.5781,43.9688 C167.5781,43.5313 167.5625,43.4063 167.4688,43.25 C167.3125,42.9844 167.0313,42.8438 166.7344,42.8438 C166.4375,42.8438 166.2344,42.9375 166.0156,43.25 L165.8438,43.1719 Z " fill="#FFFFFF"/><text fill="#FFFFFF" font-family="sans-serif" font-size="14" lengthAdjust="spacing" textLength="28" x="177.5" y="52.3467">Cup</text><line style="stroke:#E7E7E7;stroke-width:0.5;" x1="149.5" x2="207.5" y1="63.5" y2="63.5"/><line style="stroke:#E7E7E7;stroke-width:0.5;" x1="149.5" x2="207.5" y1="71.5" y2="71.5"/></g><!--class Round--><g id="elem_Round"><rect codeLine="57" fill="#313139" height="80.5938" id="Round" rx="2.5" ry="2.5" style="stroke:#E7E7E7;stroke-width:0.5;" width="89" x="7" y="577"/><ellipse cx="27.4" cy="593" fill="#2E5233" rx="11" ry="11" style="stroke:#E7E7E7;stroke-width:1.0;"/><path d="M29.7438,588.6719 C28.8063,588.2344 28.2125,588.0938 27.3375,588.0938 C24.7125,588.0938 22.7125,590.1719 22.7125,592.8906 L22.7125,594.0156 C22.7125,596.5938 24.8219,598.4844 27.7125,598.4844 C28.9313,598.4844 30.0875,598.1875 30.8375,597.6406 C31.4156,597.2344 31.7438,596.7813 31.7438,596.3906 C31.7438,595.9375 31.3531,595.5469 30.8844,595.5469 C30.6656,595.5469 30.4625,595.625 30.275,595.8125 C29.8219,596.2969 29.8219,596.2969 29.6344,596.3906 C29.2125,596.6563 28.525,596.7813 27.7594,596.7813 C25.7125,596.7813 24.4156,595.6875 24.4156,593.9844 L24.4156,592.8906 C24.4156,591.1094 25.6656,589.7969 27.4,589.7969 C27.9781,589.7969 28.5875,589.9531 29.0563,590.2031 C29.5406,590.4844 29.7125,590.7031 29.8063,591.1094 C29.8688,591.5156 29.9,591.6406 30.0406,591.7656 C30.1813,591.9063 30.4156,592.0156 30.6344,592.0156 C30.9,592.0156 31.1656,591.875 31.3375,591.6563 C31.4469,591.5 31.4781,591.3125 31.4781,590.8906 L31.4781,589.4688 C31.4781,589.0313 31.4625,588.9063 31.3688,588.75 C31.2125,588.4844 30.9313,588.3438 30.6344,588.3438 C30.3375,588.3438 30.1344,588.4375 29.9156,588.75 L29.7438,588.6719 Z " fill="#FFFFFF"/><text fill="#FFFFFF" font-family="sans-serif" font-size="14" lengthAdjust="spacing" textLength="45" x="42.6" y="597.8467">Round</text><line style="stroke:#E7E7E7;stroke-width:0.5;" x1="8" x2="95" y1="609" y2="609"/><text fill="#FFFFFF" font-family="sans-serif" font-size="14" lengthAdjust="spacing" textLength="42" x="13" y="625.9951">id: int</text><text fill="#FFFFFF" font-family="sans-serif" font-size="14" lengthAdjust="spacing" textLength="77" x="13" y="642.292">date: Date</text><line style="stroke:#E7E7E7;stroke-width:0.5;" x1="8" x2="95" y1="649.5938" y2="649.5938"/></g><!--class MatchReferees--><g id="elem_MatchReferees"><rect codeLine="63" fill="#313139" height="64.2969" id="MatchReferees" rx="2.5" ry="2.5" style="stroke:#E7E7E7;stroke-width:0.5;" width="141" x="745" y="585.5"/><ellipse cx="760" cy="601.5" fill="#2E5233" rx="11" ry="11" style="stroke:#E7E7E7;stroke-width:1.0;"/><path d="M762.3438,597.1719 C761.4063,596.7344 760.8125,596.5938 759.9375,596.5938 C757.3125,596.5938 755.3125,598.6719 755.3125,601.3906 L755.3125,602.5156 C755.3125,605.0938 757.4219,606.9844 760.3125,606.9844 C761.5313,606.9844 762.6875,606.6875 763.4375,606.1406 C764.0156,605.7344 764.3438,605.2813 764.3438,604.8906 C764.3438,604.4375 763.9531,604.0469 763.4844,604.0469 C763.2656,604.0469 763.0625,604.125 762.875,604.3125 C762.4219,604.7969 762.4219,604.7969 762.2344,604.8906 C761.8125,605.1563 761.125,605.2813 760.3594,605.2813 C758.3125,605.2813 757.0156,604.1875 757.0156,602.4844 L757.0156,601.3906 C757.0156,599.6094 758.2656,598.2969 760,598.2969 C760.5781,598.2969 761.1875,598.4531 761.6563,598.7031 C762.1406,598.9844 762.3125,599.2031 762.4063,599.6094 C762.4688,600.0156 762.5,600.1406 762.6406,600.2656 C762.7813,600.4063 763.0156,600.5156 763.2344,600.5156 C763.5,600.5156 763.7656,600.375 763.9375,600.1563 C764.0469,600 764.0781,599.8125 764.0781,599.3906 L764.0781,597.9688 C764.0781,597.5313 764.0625,597.4063 763.9688,597.25 C763.8125,596.9844 763.5313,596.8438 763.2344,596.8438 C762.9375,596.8438 762.7344,596.9375 762.5156,597.25 L762.3438,597.1719 Z " fill="#FFFFFF"/><text fill="#FFFFFF" font-family="sans-serif" font-size="14" lengthAdjust="spacing" textLength="109" x="774" y="606.3467">MatchReferees</text><line style="stroke:#E7E7E7;stroke-width:0.5;" x1="746" x2="885" y1="617.5" y2="617.5"/><text fill="#FFFFFF" font-family="sans-serif" font-size="14" lengthAdjust="spacing" textLength="92" x="751" y="634.4951">notes: string</text><line style="stroke:#E7E7E7;stroke-width:0.5;" x1="746" x2="885" y1="641.7969" y2="641.7969"/></g><!--class Stadium--><g id="elem_Stadium"><rect codeLine="67" fill="#313139" height="113.1875" id="Stadium" rx="2.5" ry="2.5" style="stroke:#E7E7E7;stroke-width:0.5;" width="121" x="131" y="561"/><ellipse cx="159.5" cy="577" fill="#2E5233" rx="11" ry="11" style="stroke:#E7E7E7;stroke-width:1.0;"/><path d="M161.8438,572.6719 C160.9063,572.2344 160.3125,572.0938 159.4375,572.0938 C156.8125,572.0938 154.8125,574.1719 154.8125,576.8906 L154.8125,578.0156 C154.8125,580.5938 156.9219,582.4844 159.8125,582.4844 C161.0313,582.4844 162.1875,582.1875 162.9375,581.6406 C163.5156,581.2344 163.8438,580.7813 163.8438,580.3906 C163.8438,579.9375 163.4531,579.5469 162.9844,579.5469 C162.7656,579.5469 162.5625,579.625 162.375,579.8125 C161.9219,580.2969 161.9219,580.2969 161.7344,580.3906 C161.3125,580.6563 160.625,580.7813 159.8594,580.7813 C157.8125,580.7813 156.5156,579.6875 156.5156,577.9844 L156.5156,576.8906 C156.5156,575.1094 157.7656,573.7969 159.5,573.7969 C160.0781,573.7969 160.6875,573.9531 161.1563,574.2031 C161.6406,574.4844 161.8125,574.7031 161.9063,575.1094 C161.9688,575.5156 162,575.6406 162.1406,575.7656 C162.2813,575.9063 162.5156,576.0156 162.7344,576.0156 C163,576.0156 163.2656,575.875 163.4375,575.6563 C163.5469,575.5 163.5781,575.3125 163.5781,574.8906 L163.5781,573.4688 C163.5781,573.0313 163.5625,572.9063 163.4688,572.75 C163.3125,572.4844 163.0313,572.3438 162.7344,572.3438 C162.4375,572.3438 162.2344,572.4375 162.0156,572.75 L161.8438,572.6719 Z " fill="#FFFFFF"/><text fill="#FFFFFF" font-family="sans-serif" font-size="14" lengthAdjust="spacing" textLength="59" x="176.5" y="581.8467">Stadium</text><line style="stroke:#E7E7E7;stroke-width:0.5;" x1="132" x2="251" y1="593" y2="593"/><text fill="#FFFFFF" font-family="sans-serif" font-size="14" lengthAdjust="spacing" textLength="42" x="137" y="609.9951">id: int</text><text fill="#FFFFFF" font-family="sans-serif" font-size="14" lengthAdjust="spacing" textLength="91" x="137" y="626.292">name: string</text><text fill="#FFFFFF" font-family="sans-serif" font-size="14" lengthAdjust="spacing" textLength="109" x="137" y="642.5889">location: string</text><text fill="#FFFFFF" font-family="sans-serif" font-size="14" lengthAdjust="spacing" textLength="90" x="137" y="658.8857">capacity: int</text><line style="stroke:#E7E7E7;stroke-width:0.5;" x1="132" x2="251" y1="666.1875" y2="666.1875"/></g><!--class Result--><g id="elem_Result"><rect codeLine="74" fill="#313139" height="96.8906" id="Result" rx="2.5" ry="2.5" style="stroke:#E7E7E7;stroke-width:0.5;" width="109" x="287" y="569"/><ellipse cx="316.4" cy="585" fill="#2E5233" rx="11" ry="11" style="stroke:#E7E7E7;stroke-width:1.0;"/><path d="M318.7438,580.6719 C317.8063,580.2344 317.2125,580.0938 316.3375,580.0938 C313.7125,580.0938 311.7125,582.1719 311.7125,584.8906 L311.7125,586.0156 C311.7125,588.5938 313.8219,590.4844 316.7125,590.4844 C317.9313,590.4844 319.0875,590.1875 319.8375,589.6406 C320.4156,589.2344 320.7438,588.7813 320.7438,588.3906 C320.7438,587.9375 320.3531,587.5469 319.8844,587.5469 C319.6656,587.5469 319.4625,587.625 319.275,587.8125 C318.8219,588.2969 318.8219,588.2969 318.6344,588.3906 C318.2125,588.6563 317.525,588.7813 316.7594,588.7813 C314.7125,588.7813 313.4156,587.6875 313.4156,585.9844 L313.4156,584.8906 C313.4156,583.1094 314.6656,581.7969 316.4,581.7969 C316.9781,581.7969 317.5875,581.9531 318.0563,582.2031 C318.5406,582.4844 318.7125,582.7031 318.8063,583.1094 C318.8688,583.5156 318.9,583.6406 319.0406,583.7656 C319.1813,583.9063 319.4156,584.0156 319.6344,584.0156 C319.9,584.0156 320.1656,583.875 320.3375,583.6563 C320.4469,583.5 320.4781,583.3125 320.4781,582.8906 L320.4781,581.4688 C320.4781,581.0313 320.4625,580.9063 320.3688,580.75 C320.2125,580.4844 319.9313,580.3438 319.6344,580.3438 C319.3375,580.3438 319.1344,580.4375 318.9156,580.75 L318.7438,580.6719 Z " fill="#FFFFFF"/><text fill="#FFFFFF" font-family="sans-serif" font-size="14" lengthAdjust="spacing" textLength="45" x="333.6" y="589.8467">Result</text><line style="stroke:#E7E7E7;stroke-width:0.5;" x1="288" x2="395" y1="601" y2="601"/><text fill="#FFFFFF" font-family="sans-serif" font-size="14" lengthAdjust="spacing" textLength="42" x="293" y="617.9951">id: int</text><text fill="#FFFFFF" font-family="sans-serif" font-size="14" lengthAdjust="spacing" textLength="92" x="293" y="634.292">score: String</text><text fill="#FFFFFF" font-family="sans-serif" font-size="14" lengthAdjust="spacing" textLength="97" x="293" y="650.5889">winner: Team</text><line style="stroke:#E7E7E7;stroke-width:0.5;" x1="288" x2="395" y1="657.8906" y2="657.8906"/></g><!--class League--><g id="elem_League"><rect codeLine="82" fill="#313139" height="48" id="League" rx="2.5" ry="2.5" style="stroke:#E7E7E7;stroke-width:0.5;" width="83" x="355" y="31.5"/><ellipse cx="370" cy="47.5" fill="#2E5233" rx="11" ry="11" style="stroke:#E7E7E7;stroke-width:1.0;"/><path d="M372.3438,43.1719 C371.4063,42.7344 370.8125,42.5938 369.9375,42.5938 C367.3125,42.5938 365.3125,44.6719 365.3125,47.3906 L365.3125,48.5156 C365.3125,51.0938 367.4219,52.9844 370.3125,52.9844 C371.5313,52.9844 372.6875,52.6875 373.4375,52.1406 C374.0156,51.7344 374.3438,51.2813 374.3438,50.8906 C374.3438,50.4375 373.9531,50.0469 373.4844,50.0469 C373.2656,50.0469 373.0625,50.125 372.875,50.3125 C372.4219,50.7969 372.4219,50.7969 372.2344,50.8906 C371.8125,51.1563 371.125,51.2813 370.3594,51.2813 C368.3125,51.2813 367.0156,50.1875 367.0156,48.4844 L367.0156,47.3906 C367.0156,45.6094 368.2656,44.2969 370,44.2969 C370.5781,44.2969 371.1875,44.4531 371.6563,44.7031 C372.1406,44.9844 372.3125,45.2031 372.4063,45.6094 C372.4688,46.0156 372.5,46.1406 372.6406,46.2656 C372.7813,46.4063 373.0156,46.5156 373.2344,46.5156 C373.5,46.5156 373.7656,46.375 373.9375,46.1563 C374.0469,46 374.0781,45.8125 374.0781,45.3906 L374.0781,43.9688 C374.0781,43.5313 374.0625,43.4063 373.9688,43.25 C373.8125,42.9844 373.5313,42.8438 373.2344,42.8438 C372.9375,42.8438 372.7344,42.9375 372.5156,43.25 L372.3438,43.1719 Z " fill="#FFFFFF"/><text fill="#FFFFFF" font-family="sans-serif" font-size="14" lengthAdjust="spacing" textLength="51" x="384" y="52.3467">League</text><line style="stroke:#E7E7E7;stroke-width:0.5;" x1="356" x2="437" y1="63.5" y2="63.5"/><line style="stroke:#E7E7E7;stroke-width:0.5;" x1="356" x2="437" y1="71.5" y2="71.5"/></g><!--class MatchDay--><g id="elem_MatchDay"><rect codeLine="86" fill="#313139" height="80.5938" id="MatchDay" rx="2.5" ry="2.5" style="stroke:#E7E7E7;stroke-width:0.5;" width="103" x="296" y="189"/><ellipse cx="311" cy="205" fill="#2E5233" rx="11" ry="11" style="stroke:#E7E7E7;stroke-width:1.0;"/><path d="M313.3438,200.6719 C312.4063,200.2344 311.8125,200.0938 310.9375,200.0938 C308.3125,200.0938 306.3125,202.1719 306.3125,204.8906 L306.3125,206.0156 C306.3125,208.5938 308.4219,210.4844 311.3125,210.4844 C312.5313,210.4844 313.6875,210.1875 314.4375,209.6406 C315.0156,209.2344 315.3438,208.7813 315.3438,208.3906 C315.3438,207.9375 314.9531,207.5469 314.4844,207.5469 C314.2656,207.5469 314.0625,207.625 313.875,207.8125 C313.4219,208.2969 313.4219,208.2969 313.2344,208.3906 C312.8125,208.6563 312.125,208.7813 311.3594,208.7813 C309.3125,208.7813 308.0156,207.6875 308.0156,205.9844 L308.0156,204.8906 C308.0156,203.1094 309.2656,201.7969 311,201.7969 C311.5781,201.7969 312.1875,201.9531 312.6563,202.2031 C313.1406,202.4844 313.3125,202.7031 313.4063,203.1094 C313.4688,203.5156 313.5,203.6406 313.6406,203.7656 C313.7813,203.9063 314.0156,204.0156 314.2344,204.0156 C314.5,204.0156 314.7656,203.875 314.9375,203.6563 C315.0469,203.5 315.0781,203.3125 315.0781,202.8906 L315.0781,201.4688 C315.0781,201.0313 315.0625,200.9063 314.9688,200.75 C314.8125,200.4844 314.5313,200.3438 314.2344,200.3438 C313.9375,200.3438 313.7344,200.4375 313.5156,200.75 L313.3438,200.6719 Z " fill="#FFFFFF"/><text fill="#FFFFFF" font-family="sans-serif" font-size="14" lengthAdjust="spacing" textLength="71" x="325" y="209.8467">MatchDay</text><line style="stroke:#E7E7E7;stroke-width:0.5;" x1="297" x2="398" y1="221" y2="221"/><text fill="#FFFFFF" font-family="sans-serif" font-size="14" lengthAdjust="spacing" textLength="42" x="302" y="237.9951">id: int</text><text fill="#FFFFFF" font-family="sans-serif" font-size="14" lengthAdjust="spacing" textLength="75" x="302" y="254.292">date: date</text><line style="stroke:#E7E7E7;stroke-width:0.5;" x1="297" x2="398" y1="261.5938" y2="261.5938"/></g><!--class TeamPlayers--><g id="elem_TeamPlayers"><rect codeLine="91" fill="#313139" height="80.5938" id="TeamPlayers" rx="2.5" ry="2.5" style="stroke:#E7E7E7;stroke-width:0.5;" width="144" x="505.5" y="847"/><ellipse cx="529.95" cy="863" fill="#2E5233" rx="11" ry="11" style="stroke:#E7E7E7;stroke-width:1.0;"/><path d="M532.2938,858.6719 C531.3563,858.2344 530.7625,858.0938 529.8875,858.0938 C527.2625,858.0938 525.2625,860.1719 525.2625,862.8906 L525.2625,864.0156 C525.2625,866.5938 527.3719,868.4844 530.2625,868.4844 C531.4813,868.4844 532.6375,868.1875 533.3875,867.6406 C533.9656,867.2344 534.2938,866.7813 534.2938,866.3906 C534.2938,865.9375 533.9031,865.5469 533.4344,865.5469 C533.2156,865.5469 533.0125,865.625 532.825,865.8125 C532.3719,866.2969 532.3719,866.2969 532.1844,866.3906 C531.7625,866.6563 531.075,866.7813 530.3094,866.7813 C528.2625,866.7813 526.9656,865.6875 526.9656,863.9844 L526.9656,862.8906 C526.9656,861.1094 528.2156,859.7969 529.95,859.7969 C530.5281,859.7969 531.1375,859.9531 531.6063,860.2031 C532.0906,860.4844 532.2625,860.7031 532.3563,861.1094 C532.4188,861.5156 532.45,861.6406 532.5906,861.7656 C532.7313,861.9063 532.9656,862.0156 533.1844,862.0156 C533.45,862.0156 533.7156,861.875 533.8875,861.6563 C533.9969,861.5 534.0281,861.3125 534.0281,860.8906 L534.0281,859.4688 C534.0281,859.0313 534.0125,858.9063 533.9188,858.75 C533.7625,858.4844 533.4813,858.3438 533.1844,858.3438 C532.8875,858.3438 532.6844,858.4375 532.4656,858.75 L532.2938,858.6719 Z " fill="#FFFFFF"/><text fill="#FFFFFF" font-family="sans-serif" font-size="14" lengthAdjust="spacing" textLength="91" x="546.05" y="867.8467">TeamPlayers</text><line style="stroke:#E7E7E7;stroke-width:0.5;" x1="506.5" x2="648.5" y1="879" y2="879"/><text fill="#FFFFFF" font-family="sans-serif" font-size="14" lengthAdjust="spacing" textLength="132" x="511.5" y="895.9951">joining_date: Date</text><text fill="#FFFFFF" font-family="sans-serif" font-size="14" lengthAdjust="spacing" textLength="123" x="511.5" y="912.292">apart_date: Date</text><line style="stroke:#E7E7E7;stroke-width:0.5;" x1="506.5" x2="648.5" y1="919.5938" y2="919.5938"/></g><!--class MatchStats--><g id="elem_MatchStats"><rect codeLine="98" fill="#313139" height="113.1875" id="MatchStats" rx="2.5" ry="2.5" style="stroke:#E7E7E7;stroke-width:0.5;" width="141" x="381" y="704"/><ellipse cx="408.15" cy="720" fill="#2E5233" rx="11" ry="11" style="stroke:#E7E7E7;stroke-width:1.0;"/><path d="M410.4938,715.6719 C409.5563,715.2344 408.9625,715.0938 408.0875,715.0938 C405.4625,715.0938 403.4625,717.1719 403.4625,719.8906 L403.4625,721.0156 C403.4625,723.5938 405.5719,725.4844 408.4625,725.4844 C409.6813,725.4844 410.8375,725.1875 411.5875,724.6406 C412.1656,724.2344 412.4938,723.7813 412.4938,723.3906 C412.4938,722.9375 412.1031,722.5469 411.6344,722.5469 C411.4156,722.5469 411.2125,722.625 411.025,722.8125 C410.5719,723.2969 410.5719,723.2969 410.3844,723.3906 C409.9625,723.6563 409.275,723.7813 408.5094,723.7813 C406.4625,723.7813 405.1656,722.6875 405.1656,720.9844 L405.1656,719.8906 C405.1656,718.1094 406.4156,716.7969 408.15,716.7969 C408.7281,716.7969 409.3375,716.9531 409.8063,717.2031 C410.2906,717.4844 410.4625,717.7031 410.5563,718.1094 C410.6188,718.5156 410.65,718.6406 410.7906,718.7656 C410.9313,718.9063 411.1656,719.0156 411.3844,719.0156 C411.65,719.0156 411.9156,718.875 412.0875,718.6563 C412.1969,718.5 412.2281,718.3125 412.2281,717.8906 L412.2281,716.4688 C412.2281,716.0313 412.2125,715.9063 412.1188,715.75 C411.9625,715.4844 411.6813,715.3438 411.3844,715.3438 C411.0875,715.3438 410.8844,715.4375 410.6656,715.75 L410.4938,715.6719 Z " fill="#FFFFFF"/><text fill="#FFFFFF" font-family="sans-serif" font-size="14" lengthAdjust="spacing" textLength="82" x="424.85" y="724.8467">MatchStats</text><line style="stroke:#E7E7E7;stroke-width:0.5;" x1="382" x2="521" y1="736" y2="736"/><text fill="#FFFFFF" font-family="sans-serif" font-size="14" lengthAdjust="spacing" textLength="66" x="387" y="752.9951">goals: int</text><text fill="#FFFFFF" font-family="sans-serif" font-size="14" lengthAdjust="spacing" textLength="119" x="387" y="769.292">yellow_cards: int</text><text fill="#FFFFFF" font-family="sans-serif" font-size="14" lengthAdjust="spacing" textLength="129" x="387" y="785.5889">red_card: boolean</text><text fill="#FFFFFF" font-family="sans-serif" font-size="14" lengthAdjust="spacing" textLength="76" x="387" y="801.8857">assists: int</text><line style="stroke:#E7E7E7;stroke-width:0.5;" x1="382" x2="521" y1="809.1875" y2="809.1875"/></g><!--link Tournament to TournamenTeam--><g id="link_Tournament_TournamenTeam"><path codeLine="107" d="M569.825,294.148 C605.137,329.088 646.782,370.295 672.155,395.4 " fill="none" id="Tournament-TournamenTeam" style="stroke:#E7E7E7;stroke-width:1.0;"/></g><!--link TournamenTeam to Team--><g id="link_TournamenTeam_Team"><path codeLine="108" d="M681.738,443.753 C664.754,472.451 635.31,522.201 612.369,560.963 " fill="none" id="TournamenTeam-Team" style="stroke:#E7E7E7;stroke-width:1.0;"/></g><!--reverse link Tournament to User--><g id="link_Tournament_User"><path codeLine="109" d="M510.3273,306.1236 C511.5783,325.7246 512.191,335.321 513.442,354.917 " fill="none" id="Tournament-backto-User" style="stroke:#E7E7E7;stroke-width:1.0;"/><polygon fill="#E7E7E7" points="509.563,294.148,505.9533,300.3906,510.3273,306.1236,513.937,299.881,509.563,294.148" style="stroke:#E7E7E7;stroke-width:1.0;"/></g><!--reverse link Match to Team--><g id="link_Match_Team"><path codeLine="110" d="M419.2337,474.7338 C449.2607,495.0378 468.94,508.603 475.5,514 C492.923,528.336 510.801,545.092 526.712,560.854 " fill="none" id="Match-backto-Team" style="stroke:#E7E7E7;stroke-width:1.0;"/><polygon fill="#E7E7E7" points="409.293,468.012,412.0227,474.6865,419.2337,474.7338,416.5039,468.0593,409.293,468.012" style="stroke:#E7E7E7;stroke-width:1.0;"/></g><!--link Match to Team--><g id="link_Match_Team"><path codeLine="111" d="M405.886,468.161 C414.984,473.814 424.341,479.253 433.5,484 C466.476,501.092 482.529,490.758 511.5,514 C527.324,526.695 540.768,544.083 551.42,560.933 " fill="none" id="Match-Team" style="stroke:#E7E7E7;stroke-width:1.0;"/><text fill="#FFFFFF" font-family="sans-serif" font-size="13" lengthAdjust="spacing" textLength="43" x="529.5" y="527.0669">winner</text></g><!--link Match to MatchReferees--><g id="link_Match_MatchReferees"><path codeLine="112" d="M402.545,468.077 C412.561,474.093 423.061,479.653 433.5,484 C495.458,509.802 517.511,493.754 581.5,514 C641.968,533.132 707.896,562.872 754.317,585.4 " fill="none" id="Match-MatchReferees" style="stroke:#E7E7E7;stroke-width:1.0;"/></g><!--link Referee to MatchReferees--><g id="link_Referee_MatchReferees"><path codeLine="113" d="M855.603,468.196 C845.736,504.683 832.418,553.934 823.893,585.463 " fill="none" id="Referee-MatchReferees" style="stroke:#E7E7E7;stroke-width:1.0;"/></g><!--link Cup to Tournament--><g id="link_Cup_Tournament"><path codeLine="114" d="M208.722,68.1 C254.831,86.27 344.931,123.667 416.5,165 C423.239,168.892 415.0408,163.309 421.8158,167.743 " fill="none" id="Cup-to-Tournament" style="stroke:#E7E7E7;stroke-width:1.0;"/><polygon fill="none" points="436.877,177.6,425.1015,162.7226,418.5301,172.7634,436.877,177.6" style="stroke:#E7E7E7;stroke-width:1.0;"/></g><!--link Match to Stadium--><g id="link_Match_Stadium"><path codeLine="115" d="M302.728,468.196 C281.736,496.185 255.112,531.684 233.175,560.933 " fill="none" id="Match-Stadium" style="stroke:#E7E7E7;stroke-width:1.0;"/></g><!--link Match to Result--><g id="link_Match_Result"><path codeLine="116" d="M339.23,468.196 C339.698,498.791 340.304,538.36 340.772,568.93 " fill="none" id="Match-Result" style="stroke:#E7E7E7;stroke-width:1.0;"/></g><!--link Cup to Round--><g id="link_Cup_Round"><path codeLine="117" d="M173.205,79.85 C153.629,166.169 85.2093,467.86 60.4933,576.845 " fill="none" id="Cup-Round" style="stroke:#E7E7E7;stroke-width:1.0;"/></g><!--link Match to Round--><g id="link_Match_Round"><path codeLine="118" d="M260.829,464.508 C216.445,490.749 160.45,525.738 113.5,561 C106.9157,565.945 100.1897,571.44 93.7117,576.994 " fill="none" id="Match-Round" style="stroke:#E7E7E7;stroke-width:1.0;"/></g><!--link League to Tournament--><g id="link_League_Tournament"><path codeLine="119" d="M411.2,79.7 C424.972,101.43 436.565,119.7208 455.395,149.4348 " fill="none" id="League-to-Tournament" style="stroke:#E7E7E7;stroke-width:1.0;"/><polygon fill="none" points="465.03,164.639,460.4631,146.2232,450.3269,152.6465,465.03,164.639" style="stroke:#E7E7E7;stroke-width:1.0;"/></g><!--reverse link League to MatchDay--><g id="link_League_MatchDay"><path codeLine="120" d="M386.6036,91.2407 C378.6356,119.2047 368.406,155.116 358.778,188.913 " fill="none" id="League-backto-MatchDay" style="stroke:#E7E7E7;stroke-width:1.0;"/><polygon fill="#E7E7E7" points="389.892,79.7,384.4009,84.3742,386.6036,91.2407,392.0947,86.5664,389.892,79.7" style="stroke:#E7E7E7;stroke-width:1.0;"/></g><!--link MatchDay to Match--><g id="link_MatchDay_Match"><path codeLine="121" d="M345.591,270.37 C344.188,299.687 342.274,339.661 340.789,370.695 " fill="none" id="MatchDay-Match" style="stroke:#E7E7E7;stroke-width:1.0;"/></g><!--link Team to TeamPlayers--><g id="link_Team_TeamPlayers"><path codeLine="122" d="M579.086,674.03 C578.701,725.545 578.138,800.95 577.797,846.703 " fill="none" id="Team-TeamPlayers" style="stroke:#E7E7E7;stroke-width:1.0;"/></g><!--link TeamPlayers to Player--><g id="link_TeamPlayers_Player"><path codeLine="123" d="M556.086,928.269 C546.17,946.684 534.22,968.877 523.431,988.913 " fill="none" id="TeamPlayers-Player" style="stroke:#E7E7E7;stroke-width:1.0;"/></g><!--link Match to MatchStats--><g id="link_Match_MatchStats"><path codeLine="124" d="M368.644,468.258 C384.121,494.699 402.075,528.674 413.5,561 C430.045,607.811 439.91,663.519 445.424,703.987 " fill="none" id="Match-MatchStats" style="stroke:#E7E7E7;stroke-width:1.0;"/></g><!--link MatchStats to Player--><g id="link_MatchStats_Player"><path codeLine="125" d="M459.748,817.074 C467.106,866.653 477.825,938.883 485.199,988.57 " fill="none" id="MatchStats-Player" style="stroke:#E7E7E7;stroke-width:1.0;"/></g><!--SRC=[XLF9Rjim4BtpAtWsu1_GeK0H1yZ1QGpREVGaqEJ4PY6J1XUuGfj_pt2HH55DUY4uR_PvCxnZrj8Zi2lzGoYLeg5IEVmfTeM6McUaEgF83J0djMe5SuY7Dw3QAsVwqUwT41u3xZhMWwb2labZNLi5HlC5TfB6NJPJeZ7iKNiJR9Nxkbe19-_cfO8ISw3JF7QqB7xCaiSoQLxjeYcFK9KThansXNn3rxiseeGkMi4oypDp_58bc1Lj7NFUDidm48NW3SfVIoo6E3myFMvUjuyR_E-stt-cpylXk7lvWVynwHxUm01yFL7uVGCZGN581gFtWx_DHhJ7bH3_R24GIgfUS-vKiD8Ex78es9AG_Z_xkM0JbvFT69UkhmhUW_LTlJ-MQuFX3eFlNIe5fec74MlEpbjWPm-pXcCV6zP_JjkqM1WjNKPe68r-QQamOLiCY58isxZsyva5YjF0pffrTaZOGzVfUykP4IDcG4IWeIUjEs0gXBTMMcV7gH1INDLwFTz-Ch-5e9wXZguG2sT1qkwk1fCaPeasUQ8JFAEV33kuK8JrMg__VYjEVugHDsC24hVPAQrYeOnYPh2EcU7LK00IIaPc1v2KGyX4af9KLALlrMUaZ1JiZOOV]--></g></svg>